<?xml version="1.0" encoding="UTF-8"?>
<svg xmlns="http://www.w3.org/2000/svg" width="1024" height="1024" viewBox="0 0 1024 1024" fill="none" aria-hidden="true">
  <title>Whisk mark (vector)</title>
  <g transform="translate(205 143) scale(15.36)">
    <g fill="#8f6e3d" stroke="#8f6e3d">
      <path
        d="M8 16.5c1-4.8 4.5-7.8 11-7.8s10 3 11 7.8c1.5-.35 2.7.45 3.2 1.6.25.65.15 1.45-.35 2.1-.75 1.1-2.2 1.35-3.4.85-1 2.4-3.6 3.9-7.6 3.9-3.6 0-6.4-1.2-7.6-3.4-.9.55-2.1.4-2.9-.4-.75-.75-.65-2 .15-2.75z"
        fill="#8f6e3d"
      />
      <ellipse cx="14.5" cy="11" rx="3.8" ry="2.8" fill="#b8956a" fill-opacity="0.5" stroke="none" />
      <ellipse cx="25.5" cy="10.5" rx="3.4" ry="2.6" fill="#b8956a" fill-opacity="0.45" stroke="none" />
      <ellipse cx="20" cy="8" rx="2.8" ry="2" fill="#b8956a" fill-opacity="0.55" stroke="none" />
      <path
        d="M14.5 14.5c1 1.1 2.2 1.7 3.5 1.7s2.5-.6 3.5-1.7"
        stroke="#8f6e3d"
        stroke-width="0.65"
        stroke-linecap="round"
        stroke-opacity="0.4"
        fill="none"
      />
    </g>
    <g stroke="#1c1410" fill="#1c1410">
      <path d="M20 45.5v-10" stroke-width="2.4" stroke-linecap="round" fill="none" />
      <circle cx="20" cy="33.8" r="1.75" />
      <path
        d="M20 33.5c-4.8-6-7.4-10.4-7.4-14.6 0-2.4.75-4.4 2-6"
        stroke-width="1.1"
        stroke-linecap="round"
        fill="none"
      />
      <path
        d="M20 33.5c4.8-6 7.4-10.4 7.4-14.6 0-2.4-.75-4.4-2-6"
        stroke-width="1.1"
        stroke-linecap="round"
        fill="none"
      />
      <path d="M20 33.5V11" stroke-width="1" stroke-linecap="round" fill="none" />
      <path
        d="M20 33.5c-3.5-5.4-5.2-9.2-5.2-13 0-2 .45-3.7 1.3-5.1"
        stroke-width="0.95"
        stroke-linecap="round"
        stroke-opacity="0.85"
        fill="none"
      />
      <path
        d="M20 33.5c3.5-5.4 5.2-9.2 5.2-13 0-2-.45-3.7-1.3-5.1"
        stroke-width="0.95"
        stroke-linecap="round"
        stroke-opacity="0.85"
        fill="none"
      />
      <path
        d="M20 33.5c-2-3.9-3-6.8-3-9.8 0-1.5.2-2.8.55-3.9"
        stroke-width="0.9"
        stroke-linecap="round"
        stroke-opacity="0.65"
        fill="none"
      />
      <path
        d="M20 33.5c2-3.9 3-6.8 3-9.8 0-1.5-.2-2.8-.55-3.9"
        stroke-width="0.9"
        stroke-linecap="round"
        stroke-opacity="0.65"
        fill="none"
      />
    </g>
  </g>
</svg>
